<svg width="28" height="24" viewBox="0 0 28 24" fill="none" xmlns="http://www.w3.org/2000/svg">
<path fill-rule="evenodd" clip-rule="evenodd" d="M24 0.75H4C1.93507 0.75 0.2625 2.43419 0.2625 4.5L0.25 19.499C0.25 21.5654 1.93464 23.25 4 23.25H24C26.0654 23.25 27.75 21.5654 27.75 19.5V4.5C27.75 2.43464 26.0654 0.75 24 0.75ZM2.7625 4.50104C2.7625 3.81104 3.31967 3.25 4 3.25H24C24.6846 3.25 25.25 3.81536 25.25 4.5V19.5C25.25 20.1846 24.6846 20.75 24 20.75H4C3.31536 20.75 2.75 20.1846 2.75 19.5L2.7625 4.50104ZM5.64094 8.12117C5.16789 7.83614 5.01547 7.22159 5.30049 6.74854L5.55854 6.32027C5.84356 5.84722 6.45811 5.6948 6.93116 5.97982L13.9634 10.2169L21.2932 5.80049C21.7662 5.51547 22.3808 5.66789 22.6658 6.14095L22.9255 6.57197C23.2099 7.04394 23.0589 7.65703 22.5878 7.94292L14.0124 13.1475L14.0046 13.1605L5.64094 8.12117Z" fill="white"/>
</svg>
