<svg width="21" height="23" viewBox="0 0 21 23" fill="none" xmlns="http://www.w3.org/2000/svg">
<path fill-rule="evenodd" clip-rule="evenodd" d="M4.4475 10.0379C6.0675 13.4575 8.6775 16.2488 11.8612 18.0008L14.3363 15.3425C14.64 15.0163 15.09 14.9075 15.4838 15.0525C16.7437 15.4996 18.105 15.7413 19.5 15.7413C20.1187 15.7413 20.625 16.285 20.625 16.9496V21.1667C20.625 21.8313 20.1187 22.375 19.5 22.375C8.93625 22.375 0.375 13.1796 0.375 1.83333C0.375 1.16875 0.88125 0.625 1.5 0.625H5.4375C6.05625 0.625 6.5625 1.16875 6.5625 1.83333C6.5625 3.34375 6.7875 4.79375 7.20375 6.14708C7.3275 6.57 7.2375 7.04125 6.9225 7.37958L4.4475 10.0379Z" fill="white"/>
</svg>
